%FSLAX44Y44*%
%MOMM*%
G71*
G01*
G75*
G04 Layer_Physical_Order=1*
G04 Layer_Color=255*
%ADD10R,0.8000X0.8000*%
%ADD11R,0.7000X0.8500*%
%ADD12R,1.0000X1.4000*%
%ADD13R,0.8000X0.8000*%
%ADD14R,6.6000X6.1000*%
%ADD15R,2.0000X1.0000*%
%ADD16R,1.4000X1.0000*%
%ADD17R,1.7000X1.5000*%
%ADD18R,1.5000X0.3000*%
%ADD19R,0.3000X1.5000*%
%ADD20R,1.2500X1.1000*%
%ADD21R,1.1000X1.2500*%
%ADD22R,5.5000X2.0000*%
%ADD23C,0.2540*%
%ADD24C,0.2000*%
%ADD25C,2.0000*%
%ADD26C,0.4000*%
D10*
X263977Y256347D02*
D03*
Y241361D02*
D03*
X263636Y227773D02*
D03*
Y212787D02*
D03*
X215921Y237960D02*
D03*
Y222974D02*
D03*
X378571Y420192D02*
D03*
Y436192D02*
D03*
X362226Y204807D02*
D03*
Y219793D02*
D03*
X377642Y205438D02*
D03*
Y220424D02*
D03*
X64338Y362164D02*
D03*
Y378164D02*
D03*
X48008Y361821D02*
D03*
Y377821D02*
D03*
X32703Y361483D02*
D03*
Y377483D02*
D03*
X17056Y361143D02*
D03*
Y377143D02*
D03*
X207980Y269680D02*
D03*
Y254694D02*
D03*
X19924Y185896D02*
D03*
Y200882D02*
D03*
D11*
X235029Y235162D02*
D03*
Y251162D02*
D03*
D12*
X392141Y393171D02*
D03*
X368141D02*
D03*
X9991Y265289D02*
D03*
X33991D02*
D03*
D13*
X393509Y347024D02*
D03*
X378523D02*
D03*
X383170Y326292D02*
D03*
X398156D02*
D03*
X349023Y251640D02*
D03*
X334037D02*
D03*
X385827Y177986D02*
D03*
X400813D02*
D03*
X106694Y149400D02*
D03*
X90694D02*
D03*
D14*
X280298Y309671D02*
D03*
D15*
X349158Y285171D02*
D03*
Y334171D02*
D03*
D16*
X304282Y230158D02*
D03*
Y254158D02*
D03*
X292309Y198970D02*
D03*
Y174970D02*
D03*
D17*
X337918Y155879D02*
D03*
Y189879D02*
D03*
X247398Y151102D02*
D03*
Y185102D02*
D03*
D18*
X55280Y203788D02*
D03*
Y209788D02*
D03*
Y215788D02*
D03*
Y221788D02*
D03*
Y269788D02*
D03*
Y245788D02*
D03*
Y239788D02*
D03*
Y233788D02*
D03*
Y227788D02*
D03*
Y263788D02*
D03*
Y257788D02*
D03*
Y251788D02*
D03*
Y275788D02*
D03*
Y281788D02*
D03*
Y287788D02*
D03*
Y293788D02*
D03*
X181280Y293788D02*
D03*
Y287788D02*
D03*
Y281788D02*
D03*
Y275788D02*
D03*
Y251788D02*
D03*
Y257788D02*
D03*
Y263788D02*
D03*
Y227788D02*
D03*
Y233788D02*
D03*
Y239788D02*
D03*
Y245788D02*
D03*
Y269788D02*
D03*
Y221788D02*
D03*
Y215788D02*
D03*
Y209788D02*
D03*
Y203788D02*
D03*
D19*
X163280Y311788D02*
D03*
X157280D02*
D03*
X151280D02*
D03*
X145280D02*
D03*
X97280D02*
D03*
X121280D02*
D03*
X127280D02*
D03*
X133280D02*
D03*
X139280D02*
D03*
X103280D02*
D03*
X109280D02*
D03*
X115280D02*
D03*
X91280D02*
D03*
X85280D02*
D03*
X79280D02*
D03*
X73280D02*
D03*
Y185788D02*
D03*
X79280D02*
D03*
X85280D02*
D03*
X91280D02*
D03*
X115280D02*
D03*
X109280D02*
D03*
X103280D02*
D03*
X139280D02*
D03*
X133280D02*
D03*
X127280D02*
D03*
X121280D02*
D03*
X97280D02*
D03*
X145280D02*
D03*
X151280D02*
D03*
X157280D02*
D03*
X163280D02*
D03*
D20*
X121760Y417786D02*
D03*
X98760D02*
D03*
X26306Y453163D02*
D03*
X49306D02*
D03*
X15080Y498404D02*
D03*
X38080D02*
D03*
X353748Y512010D02*
D03*
X330748D02*
D03*
D21*
X85768Y475888D02*
D03*
Y452888D02*
D03*
D22*
X307340Y448310D02*
D03*
X210820D02*
D03*
D23*
X152068Y236567D02*
X167289Y251788D01*
X181280D01*
X152068Y235775D02*
X166055Y221788D01*
X152068Y235775D02*
Y236567D01*
X136939Y235775D02*
X152068D01*
X275958Y210205D02*
X277302D01*
X273376Y212787D02*
X275958Y210205D01*
X263636Y212787D02*
X273376D01*
X257574Y198970D02*
X292309D01*
X357895Y263950D02*
X365979Y255865D01*
X357895Y263950D02*
Y281191D01*
X344898Y263121D02*
X358723D01*
X334775Y252999D02*
X344898Y263121D01*
X282818Y252999D02*
X334775D01*
X282851Y232510D02*
X348903D01*
Y214187D02*
Y232510D01*
Y214187D02*
X358283Y204807D01*
X349023Y230575D02*
Y251640D01*
X365979Y223547D02*
Y255865D01*
X362857Y220424D02*
X365979Y223547D01*
X181280Y251788D02*
X199033D01*
X201939Y254694D01*
X207980D01*
X181443Y257952D02*
X198012D01*
X324707Y571794D02*
X330748Y565753D01*
X231936Y571794D02*
X324707D01*
X204972Y544830D02*
X231936Y571794D01*
X199390Y544830D02*
X204972D01*
X330748Y512010D02*
Y565753D01*
X149860Y455961D02*
Y544830D01*
Y455961D02*
X165027Y440793D01*
X19924Y165182D02*
Y185896D01*
Y165182D02*
X45630Y139476D01*
Y111000D02*
Y139476D01*
X8547Y186859D02*
X9509Y185896D01*
X19924D01*
Y200882D02*
Y235831D01*
X35881Y251788D02*
X55280D01*
X109280Y169484D02*
Y185788D01*
X101637Y161840D02*
X109280Y169484D01*
X90993Y161840D02*
X101637D01*
X90694Y161541D02*
X90993Y161840D01*
X90694Y149400D02*
Y161541D01*
Y138924D02*
Y149400D01*
Y138924D02*
X96430Y133188D01*
Y111000D02*
Y133188D01*
X106694Y149400D02*
X117649D01*
X117698Y149449D01*
X131313D02*
X135677Y145085D01*
Y137754D02*
Y145085D01*
X71616Y111586D02*
Y137754D01*
Y154162D01*
X41941Y183837D02*
X71616Y154162D01*
X41941Y183837D02*
Y245629D01*
X42100Y245788D01*
X55280D01*
X109130Y85600D02*
X149501D01*
X163280Y99380D01*
Y185788D01*
X83730Y85600D02*
X105061Y64269D01*
X158896D01*
X175825Y81198D01*
Y149274D01*
X157280Y155907D02*
Y185788D01*
X19924Y185896D02*
X31852D01*
Y174026D02*
Y185896D01*
Y174026D02*
X49098Y156781D01*
X121280Y172581D02*
Y185788D01*
X116825Y168127D02*
X121280Y172581D01*
X127280Y149605D02*
Y185788D01*
X117698Y149449D02*
X131313D01*
X116825Y161668D02*
Y168127D01*
X8547Y186859D02*
Y263844D01*
X9991Y265289D01*
X33991Y250437D02*
Y265289D01*
X19924Y235831D02*
X35881Y251788D01*
X24861Y281788D02*
X55280D01*
X24861D02*
Y318218D01*
X17056Y326023D02*
X24861Y318218D01*
X17056Y326023D02*
Y361143D01*
X33995Y287788D02*
X55280D01*
X33995D02*
Y360192D01*
X32703Y361483D02*
X33995Y360192D01*
X48008Y301060D02*
Y361821D01*
X85280Y311788D02*
Y341222D01*
X64338Y362164D02*
X85280Y341222D01*
X17056Y377143D02*
Y427265D01*
X7379Y436942D02*
X17056Y427265D01*
X7379Y436942D02*
Y475344D01*
X15080Y483046D01*
Y498404D01*
X38080Y477983D02*
Y498404D01*
Y477983D02*
X49306Y466758D01*
Y453163D02*
Y466758D01*
X26306Y434075D02*
Y453163D01*
Y434075D02*
X48008Y412372D01*
Y377821D02*
Y412372D01*
X32703Y377483D02*
Y403965D01*
X49581Y452888D02*
X85768D01*
X98760Y360219D02*
Y417786D01*
Y360219D02*
X115280Y343699D01*
Y311788D02*
Y343699D01*
X85768Y475888D02*
X104407D01*
X114903Y465392D01*
X121760Y398412D02*
Y417786D01*
X64338Y378164D02*
Y398419D01*
X151386Y150013D02*
X157280Y155907D01*
X151280Y169765D02*
Y185788D01*
X144230Y162715D02*
X151280Y169765D01*
X247398Y118992D02*
Y151102D01*
Y118992D02*
X252129Y114262D01*
X337918Y135775D02*
Y155879D01*
Y135775D02*
X351947Y121746D01*
X292309Y198970D02*
X328826D01*
X337918Y189879D01*
X247398Y188795D02*
X257574Y198970D01*
X214310Y221364D02*
X215921Y222974D01*
X222887D02*
X233074Y212787D01*
X263636D01*
X222788Y235162D02*
X235029D01*
X245278D01*
X252666Y227773D01*
X263636D01*
X265250Y229387D01*
X279727D01*
X282851Y232510D01*
X358283Y204807D02*
X362226D01*
X377642Y181961D02*
X381616Y177986D01*
X385827D01*
X362226Y204807D02*
X377010D01*
X377642Y181961D02*
Y205438D01*
X400813Y177986D02*
Y207257D01*
X387645Y220424D02*
X400813Y207257D01*
X377642Y220424D02*
X387645D01*
X362857D02*
X377642D01*
X271180Y241361D02*
X282818Y252999D01*
X333895Y251498D02*
X334037Y251640D01*
X254817Y241361D02*
X263977D01*
X271180D01*
X165027Y393841D02*
Y440793D01*
X292309Y159978D02*
Y174970D01*
X287886Y155555D02*
X292309Y159978D01*
X250770Y245408D02*
X254817Y241361D01*
X292309Y198970D02*
X307089Y213751D01*
X383170Y326292D02*
Y336685D01*
X393509Y347024D01*
Y355931D01*
X368141Y381299D02*
X393509Y355931D01*
X368141Y381299D02*
Y393171D01*
X349855Y411458D02*
X368141Y393171D01*
X349855Y411458D02*
Y475691D01*
X330748Y494798D02*
X349855Y475691D01*
X330748Y494798D02*
Y512010D01*
X353748Y492042D02*
Y512010D01*
Y492042D02*
X378571Y467219D01*
Y436192D02*
Y467219D01*
Y420192D02*
X392141Y406622D01*
Y393171D02*
Y406622D01*
Y379642D02*
Y393171D01*
X283040Y306288D02*
Y345862D01*
X303249Y366071D01*
X392141Y379642D02*
X397683Y374100D01*
X366982Y347024D02*
X378523D01*
X307340Y406666D02*
X366982Y347024D01*
X307340Y406666D02*
Y448310D01*
X249410Y406666D02*
X307340D01*
X221906Y379162D02*
X249410Y406666D01*
X127280Y311788D02*
Y326907D01*
X135921Y335548D01*
X121280Y311788D02*
Y352620D01*
X135445Y366785D01*
X163939D01*
X179796Y350928D01*
X135921Y335548D02*
X163224D01*
X210820Y411325D02*
X220970Y401175D01*
X210820Y411325D02*
Y448310D01*
X277708Y383288D02*
X311693D01*
X398156Y313084D02*
Y326292D01*
X351900Y315641D02*
Y330788D01*
X383170Y318799D02*
Y326292D01*
X351900Y287529D02*
X383170Y318799D01*
X351900Y287529D02*
X357895Y281191D01*
X390668Y305595D02*
X398156Y313084D01*
X311693Y383288D02*
X341855Y353126D01*
X346966Y310707D02*
X351900Y315641D01*
X215921Y222974D02*
X222887D01*
X208117Y269818D02*
Y280974D01*
X219734D01*
X231776Y293016D01*
X181280Y215788D02*
X197901D01*
X199953Y237960D02*
X215921D01*
X217955Y239995D02*
X222788Y235162D01*
X151280Y311788D02*
Y325307D01*
X179837D01*
X187841Y317303D01*
X133280Y297169D02*
Y311788D01*
Y297169D02*
X151233D01*
Y311741D01*
X127280Y185788D02*
Y291169D01*
X166055Y221788D02*
X181280D01*
X215921D01*
X121280Y185788D02*
Y215313D01*
X115280Y221313D02*
X121280Y215313D01*
X279160Y119623D02*
Y155383D01*
Y119623D02*
X287129Y111655D01*
Y64262D02*
Y111655D01*
X278111Y155555D02*
X287886D01*
X287129Y64262D02*
X352508D01*
X358380Y70134D01*
X386947D01*
X95507Y421038D02*
X98760Y417786D01*
X95507Y421038D02*
Y443148D01*
X85768Y452888D02*
X95507Y443148D01*
X197901Y215788D02*
X219685Y194004D01*
X227127D01*
X235029Y251162D02*
X240214Y256347D01*
X263977D01*
X187841Y305475D02*
Y317303D01*
Y305475D02*
X198012Y295304D01*
Y257952D02*
Y295304D01*
X220497Y281646D02*
X227966Y274177D01*
Y258224D02*
Y274177D01*
Y258224D02*
X235029Y251162D01*
X165027Y393841D02*
X208117Y350751D01*
Y280974D02*
Y350751D01*
X127280Y291169D02*
X133280Y297169D01*
X48008Y301060D02*
X55280Y293788D01*
X115280Y221313D02*
Y311788D01*
D24*
X0Y0D02*
X410000D01*
X0D02*
Y585000D01*
X410000Y0D02*
Y585000D01*
X0D02*
X410000D01*
D25*
X96430Y111000D02*
D03*
X71030D02*
D03*
X45630D02*
D03*
X58330Y85600D02*
D03*
X83730D02*
D03*
X109130D02*
D03*
X250190Y544830D02*
D03*
X149860D02*
D03*
X199390D02*
D03*
X252129Y114262D02*
D03*
X287129Y64262D02*
D03*
X351947Y120133D02*
D03*
X386947Y70134D02*
D03*
D26*
X113124Y236570D02*
D03*
X277302Y210205D02*
D03*
X135677Y137754D02*
D03*
X71616D02*
D03*
X116825Y161668D02*
D03*
X49098Y156781D02*
D03*
X64338Y398419D02*
D03*
X121760Y398412D02*
D03*
X32703Y403965D02*
D03*
X114903Y465392D02*
D03*
X175825Y149274D02*
D03*
X151386Y150013D02*
D03*
X145452Y165507D02*
D03*
X250491Y245130D02*
D03*
X279160Y155383D02*
D03*
X303249Y366071D02*
D03*
X397858Y374799D02*
D03*
X307089Y213751D02*
D03*
X221906Y379162D02*
D03*
X162389Y335906D02*
D03*
X180511Y351166D02*
D03*
X277708Y383288D02*
D03*
X220970Y401175D02*
D03*
X341088Y353386D02*
D03*
X390412Y305851D02*
D03*
X347477Y312240D02*
D03*
X231562Y293647D02*
D03*
X199953Y237960D02*
D03*
X187841Y317303D02*
D03*
X136095Y235986D02*
D03*
X226472Y193506D02*
D03*
X348903Y232510D02*
D03*
M02*
