%FSLAX44Y44*%
%MOMM*%
G71*
G01*
G75*
G04 Layer_Color=16711935*
%ADD10R,0.8000X0.8000*%
%ADD11R,0.7000X0.8500*%
%ADD12R,1.0000X1.4000*%
%ADD13R,0.8000X0.8000*%
%ADD14R,6.6000X6.1000*%
%ADD15R,2.0000X1.0000*%
%ADD16R,1.4000X1.0000*%
%ADD17R,1.7000X1.5000*%
%ADD18R,1.5000X0.3000*%
%ADD19R,0.3000X1.5000*%
%ADD20R,1.2500X1.1000*%
%ADD21R,1.1000X1.2500*%
%ADD22R,5.5000X2.0000*%
%ADD23C,0.2540*%
%ADD24C,0.2000*%
%ADD25C,2.0000*%
%ADD26C,0.4000*%
%ADD27C,0.3000*%
%ADD28R,1.0032X1.0032*%
%ADD29R,0.9032X1.0532*%
%ADD30R,1.2032X1.6032*%
%ADD31R,1.0032X1.0032*%
%ADD32R,6.8032X6.3032*%
%ADD33R,2.2032X1.2032*%
%ADD34R,1.6032X1.2032*%
%ADD35R,1.9032X1.7032*%
%ADD36R,1.7032X0.5032*%
%ADD37R,0.5032X1.7032*%
%ADD38R,1.4532X1.3032*%
%ADD39R,1.3032X1.4532*%
%ADD40R,5.7032X2.2032*%
%ADD41C,0.2032*%
%ADD42C,2.2032*%
%ADD43C,0.6032*%
D24*
X0Y0D02*
X410000D01*
X0D02*
Y585000D01*
X410000Y0D02*
Y585000D01*
X0D02*
X410000D01*
D41*
X128230Y22000D02*
D03*
X26630D02*
D03*
D42*
X96430Y111000D02*
D03*
X71030D02*
D03*
X45630D02*
D03*
X58330Y85600D02*
D03*
X83730D02*
D03*
X109130D02*
D03*
X250190Y544830D02*
D03*
X149860D02*
D03*
X199390D02*
D03*
X252129Y114262D02*
D03*
X287129Y64262D02*
D03*
X351947Y120133D02*
D03*
X386947Y70134D02*
D03*
D43*
X113124Y236570D02*
D03*
X277302Y210205D02*
D03*
X135677Y137754D02*
D03*
X71616D02*
D03*
X116825Y161668D02*
D03*
X49098Y156781D02*
D03*
X64338Y398419D02*
D03*
X121760Y398412D02*
D03*
X32703Y403965D02*
D03*
X114903Y465392D02*
D03*
X175825Y149274D02*
D03*
X151386Y150013D02*
D03*
X145452Y165507D02*
D03*
X250491Y245130D02*
D03*
X279160Y155383D02*
D03*
X303249Y366071D02*
D03*
X397858Y374799D02*
D03*
X307089Y213751D02*
D03*
X221906Y379162D02*
D03*
X162389Y335906D02*
D03*
X180511Y351166D02*
D03*
X277708Y383288D02*
D03*
X220970Y401175D02*
D03*
X341088Y353386D02*
D03*
X390412Y305851D02*
D03*
X347477Y312240D02*
D03*
X231562Y293647D02*
D03*
X199953Y237960D02*
D03*
X187841Y317303D02*
D03*
X136095Y235986D02*
D03*
X226472Y193506D02*
D03*
X348903Y232510D02*
D03*
M02*
