%FSLAX44Y44*%
%MOMM*%
G71*
G01*
G75*
%ADD10R,0.8000X0.8000*%
%ADD11R,0.7000X0.8500*%
%ADD12R,1.0000X1.4000*%
%ADD13R,0.8000X0.8000*%
%ADD14R,6.6000X6.1000*%
%ADD15R,2.0000X1.0000*%
%ADD16R,1.4000X1.0000*%
%ADD17R,1.7000X1.5000*%
%ADD18R,1.5000X0.3000*%
%ADD19R,0.3000X1.5000*%
%ADD20R,1.2500X1.1000*%
%ADD21R,1.1000X1.2500*%
%ADD22R,5.5000X2.0000*%
%ADD23C,0.2540*%
%ADD24C,0.2000*%
%ADD25C,2.0000*%
%ADD26C,0.4000*%
%ADD27C,0.3000*%
D23*
X339556Y242935D02*
X338223Y244268D01*
X335558D01*
X334225Y242935D01*
Y237603D01*
X335558Y236270D01*
X338223D01*
X339556Y237603D01*
X342222Y236270D02*
X344888D01*
X343555D01*
Y244268D01*
X342222Y242935D01*
X218108Y213863D02*
X216775Y215196D01*
X214109D01*
X212776Y213863D01*
Y208531D01*
X214109Y207198D01*
X216775D01*
X218108Y208531D01*
X226105Y207198D02*
X220774D01*
X226105Y212530D01*
Y213863D01*
X224772Y215196D01*
X222106D01*
X220774Y213863D01*
X365456Y190793D02*
X366789Y192126D01*
Y194791D01*
X365456Y196124D01*
X360124D01*
X358792Y194791D01*
Y192126D01*
X360124Y190793D01*
X365456Y188127D02*
X366789Y186794D01*
Y184128D01*
X365456Y182795D01*
X364123D01*
X362790Y184128D01*
Y185461D01*
Y184128D01*
X361457Y182795D01*
X360124D01*
X358792Y184128D01*
Y186794D01*
X360124Y188127D01*
X391985Y168934D02*
X390653Y170267D01*
X387987D01*
X386654Y168934D01*
Y163603D01*
X387987Y162270D01*
X390653D01*
X391985Y163603D01*
X398650Y162270D02*
Y170267D01*
X394651Y166269D01*
X399983D01*
X381332Y237228D02*
X382665Y238561D01*
Y241226D01*
X381332Y242559D01*
X376000D01*
X374668Y241226D01*
Y238561D01*
X376000Y237228D01*
X382665Y229230D02*
Y234562D01*
X378666D01*
X379999Y231896D01*
Y230563D01*
X378666Y229230D01*
X376000D01*
X374668Y230563D01*
Y233229D01*
X376000Y234562D01*
X217318Y265317D02*
X215985Y263984D01*
Y261318D01*
X217318Y259985D01*
X222650D01*
X223983Y261318D01*
Y263984D01*
X222650Y265317D01*
X215985Y273314D02*
X217318Y270648D01*
X219984Y267982D01*
X222650D01*
X223983Y269315D01*
Y271981D01*
X222650Y273314D01*
X221317D01*
X219984Y271981D01*
Y267982D01*
X369815Y328918D02*
X368483Y330251D01*
X365817D01*
X364484Y328918D01*
Y323587D01*
X365817Y322254D01*
X368483D01*
X369815Y323587D01*
X372481Y330251D02*
X377813D01*
Y328918D01*
X372481Y323587D01*
Y322254D01*
X371014Y362473D02*
X369681Y363806D01*
X367015D01*
X365682Y362473D01*
Y357141D01*
X367015Y355808D01*
X369681D01*
X371014Y357141D01*
X373680Y362473D02*
X375013Y363806D01*
X377678D01*
X379011Y362473D01*
Y361140D01*
X377678Y359807D01*
X379011Y358474D01*
Y357141D01*
X377678Y355808D01*
X375013D01*
X373680Y357141D01*
Y358474D01*
X375013Y359807D01*
X373680Y361140D01*
Y362473D01*
X375013Y359807D02*
X377678D01*
X11916Y287594D02*
X10583Y288927D01*
X7917D01*
X6584Y287594D01*
Y282262D01*
X7917Y280930D01*
X10583D01*
X11916Y282262D01*
X14582D02*
X15915Y280930D01*
X18581D01*
X19914Y282262D01*
Y287594D01*
X18581Y288927D01*
X15915D01*
X14582Y287594D01*
Y286261D01*
X15915Y284928D01*
X19914D01*
X29336Y200581D02*
X28003Y199248D01*
Y196582D01*
X29336Y195249D01*
X34667D01*
X36000Y196582D01*
Y199248D01*
X34667Y200581D01*
X36000Y203247D02*
Y205912D01*
Y204580D01*
X28003D01*
X29336Y203247D01*
Y209911D02*
X28003Y211244D01*
Y213910D01*
X29336Y215243D01*
X34667D01*
X36000Y213910D01*
Y211244D01*
X34667Y209911D01*
X29336D01*
X310330Y189295D02*
X311663Y190627D01*
Y193293D01*
X310330Y194626D01*
X304999D01*
X303666Y193293D01*
Y190627D01*
X304999Y189295D01*
X303666Y186629D02*
Y183963D01*
Y185296D01*
X311663D01*
X310330Y186629D01*
X303666Y179964D02*
Y177299D01*
Y178631D01*
X311663D01*
X310330Y179964D01*
X344050Y395728D02*
X342717Y397061D01*
X340052D01*
X338719Y395728D01*
Y390397D01*
X340052Y389064D01*
X342717D01*
X344050Y390397D01*
X346716Y389064D02*
X349382D01*
X348049D01*
Y397061D01*
X346716Y395728D01*
X358712Y389064D02*
X353381D01*
X358712Y394395D01*
Y395728D01*
X357379Y397061D01*
X354714D01*
X353381Y395728D01*
X299410Y270198D02*
X298078Y271531D01*
X295412D01*
X294079Y270198D01*
Y264866D01*
X295412Y263533D01*
X298078D01*
X299410Y264866D01*
X302076Y263533D02*
X304742D01*
X303409D01*
Y271531D01*
X302076Y270198D01*
X308741D02*
X310074Y271531D01*
X312740D01*
X314072Y270198D01*
Y268865D01*
X312740Y267532D01*
X311407D01*
X312740D01*
X314072Y266199D01*
Y264866D01*
X312740Y263533D01*
X310074D01*
X308741Y264866D01*
X241888Y223161D02*
X240555Y224494D01*
X237889D01*
X236556Y223161D01*
Y217830D01*
X237889Y216497D01*
X240555D01*
X241888Y217830D01*
X244554Y216497D02*
X247220D01*
X245887D01*
Y224494D01*
X244554Y223161D01*
X255217Y216497D02*
Y224494D01*
X251218Y220495D01*
X256550D01*
X267054Y270797D02*
X265721Y272130D01*
X263055D01*
X261723Y270797D01*
Y265466D01*
X263055Y264133D01*
X265721D01*
X267054Y265466D01*
X269720Y264133D02*
X272386D01*
X271053D01*
Y272130D01*
X269720Y270797D01*
X281716Y272130D02*
X276385D01*
Y268131D01*
X279050Y269464D01*
X280383D01*
X281716Y268131D01*
Y265466D01*
X280383Y264133D01*
X277717D01*
X276385Y265466D01*
X100985Y437042D02*
Y429045D01*
X104984D01*
X106317Y430378D01*
Y435709D01*
X104984Y437042D01*
X100985D01*
X108982Y429045D02*
X111648D01*
X110315D01*
Y437042D01*
X108982Y435709D01*
X115647Y427712D02*
X120979D01*
X123644Y437042D02*
Y429045D01*
X128976D01*
X136973Y437042D02*
X131642D01*
Y429045D01*
X136973D01*
X131642Y433043D02*
X134308D01*
X139639Y437042D02*
Y429045D01*
X143638D01*
X144971Y430378D01*
Y435709D01*
X143638Y437042D01*
X139639D01*
X147637Y435709D02*
X148970Y437042D01*
X151635D01*
X152968Y435709D01*
Y430378D01*
X151635Y429045D01*
X148970D01*
X147637Y430378D01*
Y435709D01*
X30274Y443764D02*
Y435767D01*
X34272D01*
X35605Y437100D01*
Y442431D01*
X34272Y443764D01*
X30274D01*
X38271Y435767D02*
X40937D01*
X39604D01*
Y443764D01*
X38271Y442431D01*
X44936Y434434D02*
X50267D01*
X52933Y443764D02*
Y435767D01*
X58265D01*
X66262Y443764D02*
X60931D01*
Y435767D01*
X66262D01*
X60931Y439766D02*
X63596D01*
X68928Y443764D02*
Y435767D01*
X72927D01*
X74260Y437100D01*
Y442431D01*
X72927Y443764D01*
X68928D01*
X76925Y435767D02*
X79591D01*
X78258D01*
Y443764D01*
X76925Y442431D01*
X66346Y457926D02*
X74344D01*
Y461925D01*
X73011Y463258D01*
X67679D01*
X66346Y461925D01*
Y457926D01*
X74344Y465924D02*
Y468590D01*
Y467257D01*
X66346D01*
X67679Y465924D01*
X75677Y472588D02*
Y477920D01*
X66346Y480586D02*
X74344D01*
Y485917D01*
X66346Y493915D02*
Y488583D01*
X74344D01*
Y493915D01*
X70345Y488583D02*
Y491249D01*
X66346Y496581D02*
X74344D01*
Y500579D01*
X73011Y501912D01*
X67679D01*
X66346Y500579D01*
Y496581D01*
X74344Y509910D02*
Y504578D01*
X69012Y509910D01*
X67679D01*
X66346Y508577D01*
Y505911D01*
X67679Y504578D01*
X5375Y518210D02*
Y510213D01*
X9374D01*
X10707Y511546D01*
Y516877D01*
X9374Y518210D01*
X5375D01*
X13373Y510213D02*
X16039D01*
X14706D01*
Y518210D01*
X13373Y516877D01*
X20037Y508880D02*
X25369D01*
X28035Y518210D02*
Y510213D01*
X33366D01*
X41364Y518210D02*
X36032D01*
Y510213D01*
X41364D01*
X36032Y514212D02*
X38698D01*
X44030Y518210D02*
Y510213D01*
X48028D01*
X49361Y511546D01*
Y516877D01*
X48028Y518210D01*
X44030D01*
X52027Y516877D02*
X53360Y518210D01*
X56026D01*
X57359Y516877D01*
Y515545D01*
X56026Y514212D01*
X54693D01*
X56026D01*
X57359Y512879D01*
Y511546D01*
X56026Y510213D01*
X53360D01*
X52027Y511546D01*
X319752Y166165D02*
X311755D01*
Y162166D01*
X313088Y160833D01*
X318420D01*
X319752Y162166D01*
Y166165D01*
X311755Y152836D02*
Y158167D01*
X317087Y152836D01*
X318420D01*
X319752Y154169D01*
Y156834D01*
X318420Y158167D01*
X228076Y159274D02*
X220079D01*
Y155275D01*
X221412Y153942D01*
X226743D01*
X228076Y155275D01*
Y159274D01*
X226743Y151277D02*
X228076Y149944D01*
Y147278D01*
X226743Y145945D01*
X225410D01*
X224077Y147278D01*
Y148611D01*
Y147278D01*
X222745Y145945D01*
X221412D01*
X220079Y147278D01*
Y149944D01*
X221412Y151277D01*
X345083Y533914D02*
Y525917D01*
X349082D01*
X350415Y527250D01*
Y532581D01*
X349082Y533914D01*
X345083D01*
X357080Y525917D02*
Y533914D01*
X353081Y529915D01*
X358412D01*
X233912Y268304D02*
Y262973D01*
X237911D01*
Y265639D01*
Y262973D01*
X241910D01*
X233912Y270970D02*
X241910D01*
Y274969D01*
X240577Y276302D01*
X239244D01*
X237911Y274969D01*
Y270970D01*
Y274969D01*
X236578Y276302D01*
X235245D01*
X233912Y274969D01*
Y270970D01*
X241910Y278968D02*
Y281633D01*
Y280301D01*
X233912D01*
X235245Y278968D01*
X18032Y143633D02*
X15366D01*
X16699D01*
Y136969D01*
X15366Y135636D01*
X14033D01*
X12700Y136969D01*
X20697Y135636D02*
X23363D01*
X22030D01*
Y143633D01*
X20697Y142301D01*
X108612Y523768D02*
X100614D01*
Y527767D01*
X101947Y529100D01*
X104613D01*
X105946Y527767D01*
Y523768D01*
X100614Y535765D02*
Y533099D01*
X101947Y531766D01*
X107279D01*
X108612Y533099D01*
Y535765D01*
X107279Y537097D01*
X101947D01*
X100614Y535765D01*
Y539763D02*
Y545095D01*
Y542429D01*
X108612D01*
Y547761D02*
X103280D01*
X100614Y550426D01*
X103280Y553092D01*
X108612D01*
X104613D01*
Y547761D01*
X108612Y555758D02*
X100614D01*
Y559757D01*
X101947Y561090D01*
X104613D01*
X105946Y559757D01*
Y555758D01*
Y558424D02*
X108612Y561090D01*
X100614Y563755D02*
X108612D01*
Y567754D01*
X107279Y569087D01*
X101947D01*
X100614Y567754D01*
Y563755D01*
X82809Y365803D02*
X74812D01*
Y369801D01*
X76145Y371134D01*
X78811D01*
X80143Y369801D01*
Y365803D01*
Y368469D02*
X82809Y371134D01*
Y379132D02*
Y373800D01*
X77478Y379132D01*
X76145D01*
X74812Y377799D01*
Y375133D01*
X76145Y373800D01*
X60650Y336174D02*
X52652D01*
Y340173D01*
X53985Y341505D01*
X56651D01*
X57984Y340173D01*
Y336174D01*
Y338840D02*
X60650Y341505D01*
Y349503D02*
Y344171D01*
X55318Y349503D01*
X53985D01*
X52652Y348170D01*
Y345504D01*
X53985Y344171D01*
X29029Y334929D02*
X21031D01*
Y338928D01*
X22364Y340261D01*
X25030D01*
X26363Y338928D01*
Y334929D01*
Y337595D02*
X29029Y340261D01*
Y348258D02*
Y342926D01*
X23697Y348258D01*
X22364D01*
X21031Y346925D01*
Y344259D01*
X22364Y342926D01*
X11600Y335178D02*
X3603D01*
Y339177D01*
X4936Y340509D01*
X7602D01*
X8934Y339177D01*
Y335178D01*
Y337844D02*
X11600Y340509D01*
Y348507D02*
Y343175D01*
X6269Y348507D01*
X4936D01*
X3603Y347174D01*
Y344508D01*
X4936Y343175D01*
X103724Y133004D02*
Y141001D01*
X107723D01*
X109056Y139668D01*
Y137002D01*
X107723Y135669D01*
X103724D01*
X106390D02*
X109056Y133004D01*
X111721Y139668D02*
X113054Y141001D01*
X115720D01*
X117053Y139668D01*
Y138335D01*
X115720Y137002D01*
X114387D01*
X115720D01*
X117053Y135669D01*
Y134337D01*
X115720Y133004D01*
X113054D01*
X111721Y134337D01*
X370775Y420821D02*
X362778D01*
Y424820D01*
X364111Y426152D01*
X366777D01*
X368110Y424820D01*
Y420821D01*
Y423487D02*
X370775Y426152D01*
Y432817D02*
X362778D01*
X366777Y428818D01*
Y434150D01*
X55919Y184822D02*
Y178158D01*
X57252Y176825D01*
X59918D01*
X61251Y178158D01*
Y184822D01*
X63917Y176825D02*
X66582D01*
X65250D01*
Y184822D01*
X63917Y183489D01*
X260824Y354519D02*
Y347854D01*
X262157Y346521D01*
X264823D01*
X266156Y347854D01*
Y354519D01*
X274153Y346521D02*
X268821D01*
X274153Y351853D01*
Y353186D01*
X272820Y354519D01*
X270154D01*
X268821Y353186D01*
X188809Y411870D02*
Y410537D01*
X191475Y407871D01*
X194141Y410537D01*
Y411870D01*
X191475Y407871D02*
Y403872D01*
X196807D02*
X199473D01*
X198140D01*
Y411870D01*
X196807Y410537D01*
X288085Y140697D02*
Y148694D01*
X292083D01*
X293416Y147361D01*
Y144696D01*
X292083Y143363D01*
X288085D01*
X301413Y140697D02*
X296082D01*
X301413Y146029D01*
Y147361D01*
X300081Y148694D01*
X297415D01*
X296082Y147361D01*
X388451Y147290D02*
Y155288D01*
X392450D01*
X393783Y153955D01*
Y151289D01*
X392450Y149956D01*
X388451D01*
X396449Y147290D02*
X399115D01*
X397782D01*
Y155288D01*
X396449Y153955D01*
D24*
X73229Y201694D02*
G03*
X73229Y201694I-3059J0D01*
G01*
X382571Y426192D02*
Y430192D01*
X374571Y426192D02*
Y430192D01*
X317382Y272171D02*
X325926D01*
X317128Y347171D02*
X325926D01*
Y272171D02*
Y347171D01*
X324917Y192879D02*
X326917D01*
X348918D02*
X350918D01*
X324917Y162879D02*
X326917D01*
X348918D02*
X350918D01*
X324917Y164879D02*
Y167879D01*
X326917Y154879D02*
Y162879D01*
X348918Y148879D02*
Y162879D01*
X326917Y148879D02*
Y154879D01*
X324917Y148879D02*
Y192879D01*
X350918Y148879D02*
Y192879D01*
X348918Y148879D02*
X350918D01*
X324917D02*
X326917D01*
X143430Y-58000D02*
Y127000D01*
X11430Y-58000D02*
Y127000D01*
X143430D01*
X11430Y-58000D02*
X143430D01*
X68338Y368164D02*
Y372164D01*
X60338Y368164D02*
Y372164D01*
X52008Y367821D02*
Y371821D01*
X44008Y367821D02*
Y371821D01*
X36703Y367483D02*
Y371483D01*
X28703Y367483D02*
Y371483D01*
X21056Y367143D02*
Y371143D01*
X13056Y367143D02*
Y371143D01*
X61280Y191788D02*
Y199788D01*
Y191788D02*
X69280D01*
X61280Y305788D02*
X69280D01*
X167280Y191788D02*
X175280D01*
Y199788D01*
X167280Y305788D02*
X175280D01*
Y297788D02*
Y305788D01*
X61280Y297788D02*
Y305788D01*
X234398Y188102D02*
X236398D01*
X258398D02*
X260398D01*
X234398Y158102D02*
X236398D01*
X258398D02*
X260398D01*
X234398Y160102D02*
Y163102D01*
X236398Y150102D02*
Y158102D01*
X258398Y144102D02*
Y158102D01*
X236398Y144102D02*
Y150102D01*
X234398Y144102D02*
Y188102D01*
X260398Y144102D02*
Y188102D01*
X258398Y144102D02*
X260398D01*
X234398D02*
X236398D01*
X130760Y412786D02*
Y422786D01*
X17306Y448163D02*
Y458163D01*
X80768Y484888D02*
X90768D01*
X6080Y493404D02*
Y503404D01*
X96694Y153400D02*
X100694D01*
X96694Y145400D02*
X100694D01*
X188660Y418910D02*
X327660D01*
X188660Y476910D02*
X327660D01*
Y418910D02*
Y431610D01*
X188660Y418910D02*
Y431610D01*
X327660Y465310D02*
Y476910D01*
X188660Y465310D02*
Y476910D01*
X362748Y507010D02*
Y517010D01*
X114935Y486830D02*
Y581150D01*
Y486830D02*
X283845D01*
Y581150D01*
X114935D02*
X168750D01*
X230030D02*
X283845D01*
X230030D02*
Y645760D01*
X168750Y581150D02*
Y645760D01*
X168910Y645920D01*
X171450D01*
X227490Y645760D02*
X230030D01*
X227330Y645920D02*
Y731010D01*
X171450Y645920D02*
Y731010D01*
X227330D01*
X219629Y17262D02*
Y137262D01*
Y17262D02*
X304629D01*
Y137262D01*
X219629D02*
X304629D01*
X319447Y23134D02*
Y143133D01*
Y23134D02*
X404447D01*
Y143133D01*
X319447D02*
X404447D01*
X0Y0D02*
X410000D01*
X0D02*
Y585000D01*
X410000Y0D02*
Y585000D01*
X0D02*
X410000D01*
D27*
X350286Y272333D02*
G03*
X350286Y272333I-1500J0D01*
G01*
M02*
