%FSLAX44Y44*%
%MOMM*%
G71*
G01*
G75*
%ADD10R,0.8000X0.8000*%
%ADD11R,0.7000X0.8500*%
%ADD12R,1.0000X1.4000*%
%ADD13R,0.8000X0.8000*%
%ADD14R,6.6000X6.1000*%
%ADD15R,2.0000X1.0000*%
%ADD16R,1.4000X1.0000*%
%ADD17R,1.7000X1.5000*%
%ADD18R,1.5000X0.3000*%
%ADD19R,0.3000X1.5000*%
%ADD20R,1.2500X1.1000*%
%ADD21R,1.1000X1.2500*%
%ADD22R,5.5000X2.0000*%
%ADD23C,0.2540*%
%ADD24C,0.2000*%
%ADD25C,2.0000*%
%ADD26C,0.4000*%
D10*
X263977Y256347D02*
D03*
Y241361D02*
D03*
X263636Y227773D02*
D03*
Y212787D02*
D03*
X215921Y237960D02*
D03*
Y222974D02*
D03*
X378571Y420192D02*
D03*
Y436192D02*
D03*
X362226Y204807D02*
D03*
Y219793D02*
D03*
X377642Y205438D02*
D03*
Y220424D02*
D03*
X64338Y362164D02*
D03*
Y378164D02*
D03*
X48008Y361821D02*
D03*
Y377821D02*
D03*
X32703Y361483D02*
D03*
Y377483D02*
D03*
X17056Y361143D02*
D03*
Y377143D02*
D03*
X207980Y269680D02*
D03*
Y254694D02*
D03*
X19924Y185896D02*
D03*
Y200882D02*
D03*
D11*
X235029Y235162D02*
D03*
Y251162D02*
D03*
D12*
X392141Y393171D02*
D03*
X368141D02*
D03*
X9991Y265289D02*
D03*
X33991D02*
D03*
D13*
X393509Y347024D02*
D03*
X378523D02*
D03*
X383170Y326292D02*
D03*
X398156D02*
D03*
X349023Y251640D02*
D03*
X334037D02*
D03*
X385827Y177986D02*
D03*
X400813D02*
D03*
X106694Y149400D02*
D03*
X90694D02*
D03*
D14*
X280298Y309671D02*
D03*
D15*
X349158Y285171D02*
D03*
Y334171D02*
D03*
D16*
X304282Y230158D02*
D03*
Y254158D02*
D03*
X292309Y198970D02*
D03*
Y174970D02*
D03*
D17*
X337918Y155879D02*
D03*
Y189879D02*
D03*
X247398Y151102D02*
D03*
Y185102D02*
D03*
D18*
X55280Y203788D02*
D03*
Y209788D02*
D03*
Y215788D02*
D03*
Y221788D02*
D03*
Y269788D02*
D03*
Y245788D02*
D03*
Y239788D02*
D03*
Y233788D02*
D03*
Y227788D02*
D03*
Y263788D02*
D03*
Y257788D02*
D03*
Y251788D02*
D03*
Y275788D02*
D03*
Y281788D02*
D03*
Y287788D02*
D03*
Y293788D02*
D03*
X181280Y293788D02*
D03*
Y287788D02*
D03*
Y281788D02*
D03*
Y275788D02*
D03*
Y251788D02*
D03*
Y257788D02*
D03*
Y263788D02*
D03*
Y227788D02*
D03*
Y233788D02*
D03*
Y239788D02*
D03*
Y245788D02*
D03*
Y269788D02*
D03*
Y221788D02*
D03*
Y215788D02*
D03*
Y209788D02*
D03*
Y203788D02*
D03*
D19*
X163280Y311788D02*
D03*
X157280D02*
D03*
X151280D02*
D03*
X145280D02*
D03*
X97280D02*
D03*
X121280D02*
D03*
X127280D02*
D03*
X133280D02*
D03*
X139280D02*
D03*
X103280D02*
D03*
X109280D02*
D03*
X115280D02*
D03*
X91280D02*
D03*
X85280D02*
D03*
X79280D02*
D03*
X73280D02*
D03*
Y185788D02*
D03*
X79280D02*
D03*
X85280D02*
D03*
X91280D02*
D03*
X115280D02*
D03*
X109280D02*
D03*
X103280D02*
D03*
X139280D02*
D03*
X133280D02*
D03*
X127280D02*
D03*
X121280D02*
D03*
X97280D02*
D03*
X145280D02*
D03*
X151280D02*
D03*
X157280D02*
D03*
X163280D02*
D03*
D20*
X121760Y417786D02*
D03*
X98760D02*
D03*
X26306Y453163D02*
D03*
X49306D02*
D03*
X15080Y498404D02*
D03*
X38080D02*
D03*
X353748Y512010D02*
D03*
X330748D02*
D03*
D21*
X85768Y475888D02*
D03*
Y452888D02*
D03*
D22*
X307340Y448310D02*
D03*
X210820D02*
D03*
D24*
X0Y0D02*
X410000D01*
X0D02*
Y585000D01*
X410000Y0D02*
Y585000D01*
X0D02*
X410000D01*
D25*
X96430Y111000D02*
D03*
X71030D02*
D03*
X45630D02*
D03*
X58330Y85600D02*
D03*
X83730D02*
D03*
X109130D02*
D03*
X250190Y544830D02*
D03*
X149860D02*
D03*
X199390D02*
D03*
X252129Y114262D02*
D03*
X287129Y64262D02*
D03*
X351947Y120133D02*
D03*
X386947Y70134D02*
D03*
M02*
